# xmcd CD database file
#
# Track frame offsets:
#	150
#	6487
#	12985
#	19483
#	25981
#	31330
#	36952
#	42574
#	48196
#	55283
#	62651
#	70019
#	77387
#	85412
#	93812
#	102212
#
# Disc length: 1472 seconds
#
# Revision: 0
# Processed by: cddbd v1.5.2PL0 Copyright (c) Steve Scherf et al.
# Submitted via: CDex 1.70beta2
#
DISCID=c705be10
DTITLE=Frank Spaniol - Time for Trio (Sax) Vol1
DYEAR=2008
DGENRE=Jazz
TTITLE0=Autum Serenade
TTITLE1=Autum Serenade Alt1
TTITLE2=Autum Serenade Alt2
TTITLE3=Autum Serenade Tenor
TTITLE4=Blueswaltz
TTITLE5=Blueswaltz Alt1
TTITLE6=Blueswaltz Alt2
TTITLE7=Blueswaltz Tenor
TTITLE8=Let`s Go
TTITLE9=Let`s Go Alt1
TTITLE10=Let`s Go Alt2
TTITLE11=Let`s Go Tenor
TTITLE12=Song for you
TTITLE13=Song for you Alt1
TTITLE14=Song for you Alt2
TTITLE15=Song for you Tenor
EXTD=YEAR: 2008
EXTT0=
EXTT1=
EXTT2=
EXTT3=
EXTT4=
EXTT5=
EXTT6=
EXTT7=
EXTT8=
EXTT9=
EXTT10=
EXTT11=
EXTT12=
EXTT13=
EXTT14=
EXTT15=
PLAYORDER=
